<svg width="61" height="61" viewBox="0 0 61 61" fill="none" xmlns="http://www.w3.org/2000/svg">
<g clip-path="url(#clip0_1563_121)">
<path d="M55.0295 7.77573V52.5257C55.0216 52.6221 54.9768 52.7116 54.9045 52.7757C54.8743 53.3627 54.6276 53.9176 54.212 54.3332C53.7964 54.7488 53.2414 54.9956 52.6545 55.0257H39.5295V35.7757H45.6545C46.0295 35.7757 46.0295 35.7757 46.1545 35.4007L46.5295 32.2757C46.6545 31.0257 46.7795 29.7757 47.0295 28.5257C47.2795 27.2757 47.0295 28.1507 46.7795 28.1507H39.5295V23.2757C39.5295 22.9007 39.6545 22.4007 39.6545 22.0257C39.7088 21.5139 39.937 21.0361 40.3009 20.6722C40.6649 20.3082 41.1426 20.08 41.6545 20.0257L43.2795 19.7757H47.0295C47.2795 19.7757 47.2795 19.7757 47.2795 19.5257V13.1507C47.2795 13.0257 47.2795 12.9007 47.0295 12.9007H41.2795C39.8546 12.8616 38.4408 13.1615 37.1545 13.7757C36.203 14.0959 35.3255 14.6039 34.574 15.2695C33.8225 15.9352 33.2123 16.7449 32.7795 17.6507C32.0665 19.0404 31.7222 20.5899 31.7795 22.1507C31.6545 24.0257 31.7795 26.0257 31.7795 28.0257H25.4045C25.1545 28.0257 25.1545 28.1507 25.1545 28.2757V35.4007C25.1545 35.6507 25.1545 35.6507 25.4045 35.6507H31.7795V54.9007C31.7072 54.9648 31.6624 55.0544 31.6545 55.1507H7.40448C6.81751 55.1206 6.26257 54.8738 5.84697 54.4582C5.43137 54.0426 5.18464 53.4877 5.15448 52.9007C5.02948 52.9007 5.02948 52.7757 5.02948 52.6507V7.77573C5.02948 7.65073 5.02948 7.52573 5.15448 7.52573C5.18464 6.93876 5.43137 6.38382 5.84697 5.96822C6.26257 5.55262 6.81751 5.30589 7.40448 5.27573H52.6545C53.2414 5.30589 53.7964 5.55262 54.212 5.96822C54.6276 6.38382 54.8743 6.93876 54.9045 7.52573L55.0295 7.77573Z" fill="white"/>
</g>
<defs>
<clipPath id="clip0_1563_121">
<rect width="60" height="60" fill="white" transform="translate(0.02948 0.150726)"/>
</clipPath>
</defs>
</svg>
