<svg width="61" height="61" viewBox="0 0 61 61" fill="none" xmlns="http://www.w3.org/2000/svg">
<path d="M38.3639 9.52573H21.6932C18.4348 9.52821 15.3106 10.8237 13.0065 13.1278C10.7025 15.4318 9.40696 18.5561 9.40448 21.8145V38.4851C9.40647 41.7438 10.7017 44.8686 13.0059 47.173C15.31 49.4775 18.4345 50.7732 21.6932 50.7757H38.3639C41.6224 50.7727 44.7467 49.4768 47.0507 47.1725C49.3547 44.8681 50.6501 41.7437 50.6526 38.4851V21.8145C50.6511 18.5558 49.3559 15.4309 47.0517 13.1267C44.7474 10.8224 41.6226 9.52722 38.3639 9.52573ZM46.5051 38.4851C46.5046 40.6441 45.6467 42.7146 44.12 44.2413C42.5934 45.768 40.5229 46.6259 38.3639 46.6264H21.6932C20.6242 46.6264 19.5656 46.4158 18.578 46.0066C17.5904 45.5974 16.693 44.9977 15.9372 44.2417C15.1813 43.4857 14.5818 42.5882 14.1729 41.6005C13.764 40.6127 13.5536 39.5541 13.5539 38.4851V21.8145C13.5536 20.7455 13.764 19.687 14.1729 18.6994C14.5819 17.7118 15.1814 16.8144 15.9373 16.0585C16.6931 15.3027 17.5905 14.7031 18.5781 14.2942C19.5658 13.8852 20.6243 13.6749 21.6932 13.6751H38.3639C40.5224 13.6756 42.5924 14.5333 44.1187 16.0596C45.645 17.5859 46.5027 19.6559 46.5032 21.8145L46.5051 38.4851Z" fill="white"/>
<path d="M30.0295 19.4857C24.1457 19.4857 19.3645 24.2688 19.3645 30.1507C19.3645 36.0326 24.1476 40.8157 30.0295 40.8157C35.9114 40.8157 40.6945 36.0326 40.6945 30.1507C40.6945 24.2688 35.9132 19.4857 30.0295 19.4857ZM30.0295 36.6663C28.3014 36.6666 26.6441 35.9804 25.422 34.7586C24.1999 33.5369 23.5132 31.8797 23.5129 30.1517C23.5127 28.4236 24.1989 26.7662 25.4206 25.5441C26.6424 24.3221 28.2996 23.6353 30.0276 23.6351C31.7557 23.6348 33.413 24.3211 34.6351 25.5428C35.8572 26.7646 36.5439 28.4217 36.5442 30.1498C36.5444 31.8778 35.8582 33.5352 34.6364 34.7573C33.4147 35.9794 31.7575 36.6661 30.0295 36.6663ZM40.717 17.0089C41.2223 17.0092 41.7161 17.1594 42.1361 17.4403C42.5561 17.7213 42.8834 18.1204 43.0766 18.5873C43.2697 19.0542 43.3202 19.5679 43.2215 20.0635C43.1229 20.5591 42.8795 21.0143 42.5222 21.3716C42.1649 21.7289 41.7097 21.9722 41.2141 22.0709C40.7186 22.1696 40.2049 22.1191 39.738 21.9259C39.2711 21.7327 38.8719 21.4055 38.591 20.9855C38.31 20.5655 38.1599 20.0716 38.1595 19.5663C38.1595 18.1563 39.1157 17.0089 40.717 17.0089Z" fill="white"/>
</svg>
