<svg width="61" height="61" viewBox="0 0 61 61" fill="none" xmlns="http://www.w3.org/2000/svg">
<path d="M54.7315 2.01888H6.80648C6.79148 2.01888 6.7746 2.01888 6.75585 2.01888C4.50773 2.01888 2.68335 3.82638 2.6571 6.067V54.202C2.68335 56.4445 4.50773 58.2539 6.75585 58.2539C6.7746 58.2539 6.79148 58.2539 6.81023 58.2539H54.7259C54.7409 58.2539 54.7596 58.2539 54.7784 58.2539C57.0284 58.2539 58.8565 56.4483 58.8921 54.2058V54.202V6.07075C58.8565 3.82638 57.0284 2.01888 54.7765 2.01888C54.7577 2.01888 54.7409 2.01888 54.7221 2.01888H54.7315ZM19.3352 49.9401H10.984V23.107H19.3352V49.9401ZM15.1615 19.4358C12.4896 19.4358 10.3259 17.2701 10.3259 14.6001C10.3259 11.9301 12.4915 9.7645 15.1615 9.7645C17.8315 9.7645 19.9971 11.9282 19.9971 14.5982C19.9971 14.6001 19.9971 14.602 19.9971 14.6058C19.9971 17.2739 17.8334 19.4376 15.1652 19.4376C15.1634 19.4376 15.1615 19.4376 15.1596 19.4376L15.1615 19.4358ZM50.5652 49.9401H42.2384V36.892C42.2384 33.7795 42.1746 29.7764 37.8996 29.7764C33.5571 29.7764 32.8952 33.1626 32.8952 36.6633V49.942H24.5684V23.1089H32.5671V26.767H32.6759C34.2284 24.1514 37.0371 22.4264 40.249 22.4264C40.3634 22.4264 40.4759 22.4283 40.5884 22.432H40.5715C49.009 22.432 50.569 27.9858 50.569 35.2139V49.942L50.5652 49.9401Z" fill="#fff"/>
</svg>
