<svg width="51" height="31" viewBox="0 0 51 31" fill="none" xmlns="http://www.w3.org/2000/svg">
<path fill-rule="evenodd" clip-rule="evenodd" d="M0.772728 2.63637C0.772728 1.97333 1.03612 1.33744 1.50496 0.868601C1.9738 0.39976 2.60969 0.136368 3.27273 0.136368H48.2727C48.9358 0.136368 49.5717 0.39976 50.0405 0.868601C50.5093 1.33744 50.7727 1.97333 50.7727 2.63637C50.7727 3.29941 50.5093 3.93529 50.0405 4.40413C49.5717 4.87298 48.9358 5.13637 48.2727 5.13637H3.27273C2.60969 5.13637 1.9738 4.87298 1.50496 4.40413C1.03612 3.93529 0.772728 3.29941 0.772728 2.63637ZM0.772728 15.1364C0.772728 14.4733 1.03612 13.8374 1.50496 13.3686C1.9738 12.8998 2.60969 12.6364 3.27273 12.6364H48.2727C48.9358 12.6364 49.5717 12.8998 50.0405 13.3686C50.5093 13.8374 50.7727 14.4733 50.7727 15.1364C50.7727 15.7994 50.5093 16.4353 50.0405 16.9041C49.5717 17.373 48.9358 17.6364 48.2727 17.6364H3.27273C2.60969 17.6364 1.9738 17.373 1.50496 16.9041C1.03612 16.4353 0.772728 15.7994 0.772728 15.1364ZM3.27273 25.1364C2.60969 25.1364 1.9738 25.3998 1.50496 25.8686C1.03612 26.3374 0.772728 26.9733 0.772728 27.6364C0.772728 28.2994 1.03612 28.9353 1.50496 29.4041C1.9738 29.873 2.60969 30.1364 3.27273 30.1364H48.2727C48.9358 30.1364 49.5717 29.873 50.0405 29.4041C50.5093 28.9353 50.7727 28.2994 50.7727 27.6364C50.7727 26.9733 50.5093 26.3374 50.0405 25.8686C49.5717 25.3998 48.9358 25.1364 48.2727 25.1364H3.27273Z" fill="#fff"/>
</svg>
