<svg width="61" height="61" viewBox="0 0 61 61" fill="none" xmlns="http://www.w3.org/2000/svg">
<path d="M41.42 32.4162L40.2812 33.5482C40.2812 33.5482 37.5747 36.2395 30.1872 28.8937C22.7998 21.5482 25.5062 18.8571 25.5062 18.8571L26.2232 18.1442C27.9897 16.3878 28.1562 13.568 26.615 11.5094L23.4626 7.29842C21.5552 4.75052 17.8694 4.41394 15.6831 6.58779L11.7591 10.4895C10.6751 11.5674 9.94861 12.9647 10.0367 14.5147C10.2621 18.4803 12.0563 27.0125 22.0679 36.9672C32.6847 47.5237 42.6465 47.9432 46.7202 47.5635C48.0087 47.4435 49.1292 46.7872 50.0322 45.8892L53.5837 42.3582C55.981 39.9745 55.305 35.888 52.2377 34.2207L47.4615 31.6242C45.4475 30.5295 42.994 30.851 41.42 32.4162Z" fill="white"/>
</svg>
