<svg width="61" height="61" viewBox="0 0 61 61" fill="none" xmlns="http://www.w3.org/2000/svg">
<path d="M44.0295 15.9507C42.1967 14.1043 40.0152 12.6406 37.612 11.6449C35.2085 10.6492 32.631 10.1413 30.0295 10.1507C26.5517 10.1541 23.1357 11.0712 20.1238 12.8102C17.1118 14.5491 14.6097 17.0489 12.8678 20.0591C11.126 23.0694 10.2056 26.4845 10.1989 29.9622C10.1922 33.4402 11.0993 36.8587 12.8295 39.8757L10.0295 50.1507L20.5295 47.4007C23.4289 49.0137 26.6867 49.8735 30.0045 49.9007C35.2787 49.901 40.3395 47.8177 44.085 44.1047C47.8307 40.392 49.9582 35.3497 50.0045 30.0757C49.987 27.444 49.45 24.8416 48.4247 22.4177C47.3995 19.9939 45.9057 17.7962 44.0295 15.9507ZM30.0295 46.4757C27.0737 46.4777 24.172 45.6832 21.6295 44.1757L21.0295 43.8007L14.8045 45.4507L16.4545 39.3757L16.0545 38.7507C13.9276 35.3175 13.1338 31.2232 13.8235 27.2437C14.5132 23.2644 16.6385 19.6761 19.7967 17.1588C22.955 14.6414 26.9267 13.3699 30.9597 13.5849C34.9927 13.8 38.807 15.4868 41.6795 18.3257C44.8195 21.3962 46.617 25.5845 46.6795 29.9757C46.64 34.3655 44.8682 38.562 41.75 41.6522C38.632 44.7422 34.4195 46.476 30.0295 46.4757ZM39.0545 34.1257C38.5545 33.8757 36.1295 32.6757 35.6795 32.5257C35.2295 32.3757 34.8795 32.2757 34.5545 32.7757C34.0655 33.446 33.5395 34.0885 32.9795 34.7007C32.7045 35.0507 32.4045 35.0757 31.9045 34.7007C29.0537 33.5742 26.6787 31.4992 25.1795 28.8257C24.6545 27.9507 25.6795 28.0007 26.6295 26.1257C26.6997 25.9905 26.7362 25.8405 26.7362 25.6882C26.7362 25.536 26.6997 25.386 26.6295 25.2507C26.6295 25.0007 25.5045 22.5507 25.1045 21.5757C24.7045 20.6007 24.3045 20.7507 23.9795 20.7257H23.0045C22.7519 20.7296 22.503 20.7874 22.2745 20.8951C22.046 21.0029 21.8431 21.1582 21.6795 21.3507C21.1185 21.8962 20.681 22.5555 20.3964 23.2843C20.1118 24.0131 19.9867 24.7945 20.0295 25.5757C20.1862 27.446 20.8906 29.2285 22.0545 30.7007C24.185 33.8902 27.1047 36.474 30.5295 38.2007C32.3257 39.2492 34.4132 39.6877 36.4795 39.4507C37.1675 39.3142 37.8192 39.0345 38.392 38.6295C38.965 38.2247 39.4462 37.7037 39.8045 37.1007C40.1365 36.3647 40.241 35.5465 40.1045 34.7507C39.8795 34.5007 39.5545 34.3757 39.0545 34.1257Z" fill="white"/>
</svg>
